<mxfile host="app.diagrams.net" agent="Mozilla/5.0 (Macintosh; Intel Mac OS X 10_15_7) AppleWebKit/537.36 (KHTML, like Gecko) Chrome/140.0.0.0 Safari/537.36" version="28.0.6">
  <diagram name="Page-1" id="stHkNYjPsgnvwqnEDeHq">
    <mxGraphModel dx="1097" dy="487" grid="1" gridSize="10" guides="1" tooltips="1" connect="1" arrows="1" fold="1" page="1" pageScale="1" pageWidth="850" pageHeight="1100" math="0" shadow="0">
      <root>
        <mxCell id="0" />
        <mxCell id="1" parent="0" />
        <mxCell id="VkH7h2HziBzFlEW19kWf-14" value="" style="group" vertex="1" connectable="0" parent="1">
          <mxGeometry x="35" y="120" width="780" height="140" as="geometry" />
        </mxCell>
        <mxCell id="fNABVySuIZl3mwV_Zrsj-1" value="Test Script&lt;div&gt;（测试脚本）&lt;/div&gt;" style="rounded=0;whiteSpace=wrap;html=1;" parent="VkH7h2HziBzFlEW19kWf-14" vertex="1">
          <mxGeometry x="460" y="30" width="120" height="60" as="geometry" />
        </mxCell>
        <mxCell id="fNABVySuIZl3mwV_Zrsj-2" value="Jenkins&lt;div&gt;(管理)&lt;/div&gt;" style="rounded=0;whiteSpace=wrap;html=1;" parent="VkH7h2HziBzFlEW19kWf-14" vertex="1">
          <mxGeometry x="650" width="130" height="120" as="geometry" />
        </mxCell>
        <mxCell id="VkH7h2HziBzFlEW19kWf-3" value="pywebapi&lt;br&gt;&lt;div&gt;（MDC 模块）&lt;/div&gt;" style="rounded=0;whiteSpace=wrap;html=1;" vertex="1" parent="VkH7h2HziBzFlEW19kWf-14">
          <mxGeometry x="210" width="180" height="60" as="geometry" />
        </mxCell>
        <mxCell id="VkH7h2HziBzFlEW19kWf-4" value="pyproto&lt;br&gt;&lt;div&gt;（电表 模块）&lt;/div&gt;" style="rounded=0;whiteSpace=wrap;html=1;" vertex="1" parent="VkH7h2HziBzFlEW19kWf-14">
          <mxGeometry x="210" y="80" width="180" height="60" as="geometry" />
        </mxCell>
        <mxCell id="VkH7h2HziBzFlEW19kWf-5" value="System&lt;div&gt;（HES+MDC）&lt;/div&gt;" style="rounded=0;whiteSpace=wrap;html=1;" vertex="1" parent="VkH7h2HziBzFlEW19kWf-14">
          <mxGeometry width="120" height="60" as="geometry" />
        </mxCell>
        <mxCell id="VkH7h2HziBzFlEW19kWf-6" value="Device&lt;div&gt;（电表）&lt;/div&gt;" style="rounded=0;whiteSpace=wrap;html=1;" vertex="1" parent="VkH7h2HziBzFlEW19kWf-14">
          <mxGeometry y="75" width="120" height="60" as="geometry" />
        </mxCell>
        <mxCell id="VkH7h2HziBzFlEW19kWf-11" value="" style="shape=singleArrow;direction=west;whiteSpace=wrap;html=1;" vertex="1" parent="VkH7h2HziBzFlEW19kWf-14">
          <mxGeometry x="600" y="40" width="40" height="30" as="geometry" />
        </mxCell>
        <mxCell id="VkH7h2HziBzFlEW19kWf-12" value="" style="shape=singleArrow;direction=west;whiteSpace=wrap;html=1;" vertex="1" parent="VkH7h2HziBzFlEW19kWf-14">
          <mxGeometry x="410" y="45" width="40" height="30" as="geometry" />
        </mxCell>
        <mxCell id="VkH7h2HziBzFlEW19kWf-13" value="" style="shape=singleArrow;direction=west;whiteSpace=wrap;html=1;" vertex="1" parent="VkH7h2HziBzFlEW19kWf-14">
          <mxGeometry x="140" y="45" width="40" height="30" as="geometry" />
        </mxCell>
      </root>
    </mxGraphModel>
  </diagram>
</mxfile>
